<svg xmlns="http://www.w3.org/2000/svg" width="16" height="15" viewBox="0 0 16 15" fill="none">
<symbol id="twitter-icon">
<path d="M16 1.72037C15.405 2.01212 14.771 2.20551 14.11 2.29941C14.79 1.84556 15.309 1.13238 15.553 0.272755C14.919 0.695301 14.219 0.993766 13.473 1.16032C12.871 0.443785 12.013 0 11.077 0C9.261 0 7.799 1.64771 7.799 3.66765C7.799 3.95829 7.821 4.23776 7.875 4.5038C5.148 4.35513 2.735 2.8941 1.114 0.668472C0.831 1.21733 0.665 1.84556 0.665 2.52186C0.665 3.79174 1.25 4.91741 2.122 5.56911C1.595 5.55793 1.078 5.3869 0.64 5.1175C0.64 5.12868 0.64 5.14321 0.64 5.15774C0.64 6.93959 1.777 8.41962 3.268 8.76056C3.001 8.84217 2.71 8.88129 2.408 8.88129C2.198 8.88129 1.986 8.86788 1.787 8.81869C2.212 10.2708 3.418 11.3383 4.852 11.373C3.736 12.3489 2.319 12.9368 0.785 12.9368C0.516 12.9368 0.258 12.9234 0 12.8865C1.453 13.934 3.175 14.532 5.032 14.532C11.068 14.532 14.368 8.94277 14.368 4.09803C14.368 3.93594 14.363 3.77944 14.356 3.62406C15.007 3.10761 15.554 2.46262 16 1.72037Z" fill="currentColor"/>
</symbol>
<symbol id="insta-icon">
<path d="M8.15778 16C8.1048 16 8.05182 16 7.99847 15.9998C6.74428 16.0028 5.58542 15.9709 4.45842 15.9023C3.42518 15.8395 2.48203 15.4824 1.73078 14.8699C1.0059 14.2788 0.510884 13.4796 0.259531 12.4947C0.0407731 11.6373 0.0291759 10.7956 0.0180671 9.98155C0.0100101 9.39744 0.00170905 8.7053 0 8.00144C0.00170905 7.29465 0.0100101 6.60251 0.0180671 6.0184C0.0291759 5.20444 0.0407731 4.36276 0.259531 3.50521C0.510884 2.52035 1.0059 1.72115 1.73078 1.13009C2.48203 0.517535 3.42518 0.160478 4.45854 0.0976116C5.58554 0.02913 6.74464 -0.00285251 8.00153 0.000199254C9.25609 -0.0024863 10.4146 0.02913 11.5416 0.0976116C12.5748 0.160478 13.518 0.517535 14.2692 1.13009C14.9942 1.72115 15.4891 2.52035 15.7405 3.50521C15.9592 4.36264 15.9708 5.20444 15.9819 6.0184C15.99 6.60251 15.9984 7.29465 16 7.99851V8.00144C15.9984 8.7053 15.99 9.39744 15.9819 9.98155C15.9708 10.7955 15.9593 11.6372 15.7405 12.4947C15.4891 13.4796 14.9942 14.2788 14.2692 14.8699C13.518 15.4824 12.5748 15.8395 11.5416 15.9023C10.4623 15.968 9.35363 16 8.15778 16ZM7.99847 14.7498C9.23229 14.7527 10.3651 14.7216 11.4656 14.6547C12.2469 14.6072 12.9243 14.3536 13.4793 13.9011C13.9922 13.4828 14.3455 12.9056 14.5292 12.1857C14.7114 11.4719 14.7219 10.7056 14.732 9.96446C14.7399 9.38426 14.7482 8.697 14.75 7.99998C14.7482 7.30283 14.7399 6.6157 14.732 6.03549C14.7219 5.2944 14.7114 4.52804 14.5292 3.81418C14.3455 3.0942 13.9922 2.51705 13.4793 2.09872C12.9243 1.64632 12.2469 1.39278 11.4656 1.3453C10.3651 1.27828 9.23229 1.2474 8.0014 1.25008C6.76784 1.24715 5.63486 1.27828 4.53435 1.3453C3.75307 1.39278 3.07568 1.64632 2.52073 2.09872C2.00777 2.51705 1.65448 3.0942 1.47076 3.81418C1.28862 4.52804 1.27812 5.29428 1.26799 6.03549C1.26006 6.61619 1.25176 7.30381 1.25005 8.00144C1.25176 8.69602 1.26006 9.38377 1.26799 9.96446C1.27812 10.7056 1.28862 11.4719 1.47076 12.1857C1.65448 12.9056 2.00777 13.4828 2.52073 13.9011C3.07568 14.3535 3.75307 14.6071 4.53435 14.6545C5.63486 14.7216 6.76808 14.7528 7.99847 14.7498ZM7.96869 11.9062C5.8148 11.9062 4.06229 10.1539 4.06229 7.99998C4.06229 5.84604 5.8148 4.09372 7.96869 4.09372C10.1227 4.09372 11.8751 5.84604 11.8751 7.99998C11.8751 10.1539 10.1227 11.9062 7.96869 11.9062ZM7.96869 5.34372C6.50403 5.34372 5.31234 6.53537 5.31234 7.99998C5.31234 9.46458 6.50403 10.6562 7.96869 10.6562C9.43347 10.6562 10.625 9.46458 10.625 7.99998C10.625 6.53537 9.43347 5.34372 7.96869 5.34372ZM12.3126 2.84371C11.7949 2.84371 11.3751 3.26339 11.3751 3.78122C11.3751 4.29904 11.7949 4.71872 12.3126 4.71872C12.8304 4.71872 13.2501 4.29904 13.2501 3.78122C13.2501 3.26339 12.8304 2.84371 12.3126 2.84371Z" fill="currentColor"/>
</symbol>
<symbol id="facebook-icon">
<path d="M7.25611 0.00332907L5.44759 0C3.41579 0 2.10275 1.54552 2.10275 3.93762V5.75313H0.284371C0.127242 5.75313 0 5.89927 0 6.07954V8.71001C0 8.89028 0.127387 9.03625 0.284371 9.03625H2.10275V15.6738C2.10275 15.854 2.22999 16 2.38712 16H4.75959C4.91672 16 5.04396 15.8539 5.04396 15.6738V9.03625H7.17007C7.3272 9.03625 7.45444 8.89028 7.45444 8.71001L7.45531 6.07954C7.45531 5.99299 7.42528 5.91009 7.37203 5.84884C7.31878 5.78758 7.24624 5.75313 7.17079 5.75313H5.04396V4.2141C5.04396 3.47438 5.19761 3.09886 6.03752 3.09886L7.25582 3.09836C7.4128 3.09836 7.54004 2.95222 7.54004 2.77211V0.329578C7.54004 0.149642 7.41295 0.00366197 7.25611 0.00332907Z" fill="currentColor"/>
</symbol>
<symbol id="icon-cross" viewBox="0 0 32 32">
<path d="M31.708 25.708c-0-0-0-0-0-0l-9.708-9.708 9.708-9.708c0-0 0-0 0-0 0.105-0.105 0.18-0.227 0.229-0.357 0.133-0.356 0.057-0.771-0.229-1.057l-4.586-4.586c-0.286-0.286-0.702-0.361-1.057-0.229-0.13 0.048-0.252 0.124-0.357 0.228 0 0-0 0-0 0l-9.708 9.708-9.708-9.708c-0-0-0-0-0-0-0.105-0.104-0.227-0.18-0.357-0.228-0.356-0.133-0.771-0.057-1.057 0.229l-4.586 4.586c-0.286 0.286-0.361 0.702-0.229 1.057 0.049 0.13 0.124 0.252 0.229 0.357 0 0 0 0 0 0l9.708 9.708-9.708 9.708c-0 0-0 0-0 0-0.104 0.105-0.18 0.227-0.229 0.357-0.133 0.355-0.057 0.771 0.229 1.057l4.586 4.586c0.286 0.286 0.702 0.361 1.057 0.229 0.13-0.049 0.252-0.124 0.357-0.229 0-0 0-0 0-0l9.708-9.708 9.708 9.708c0 0 0 0 0 0 0.105 0.105 0.227 0.18 0.357 0.229 0.356 0.133 0.771 0.057 1.057-0.229l4.586-4.586c0.286-0.286 0.362-0.702 0.229-1.057-0.049-0.13-0.124-0.252-0.229-0.357z" fill="currentColor"/>
</symbol>
<symbol id="header-burger">
<path d="M50.0002 100C22.386 100 0.000240748 77.6142 0.000241955 50C0.000243162 22.3858 22.386 -3.39263e-06 50.0002 -2.18557e-06C77.6145 -9.78513e-07 100 22.3858 100 50C100 77.6142 77.6145 100 50.0002 100ZM50.0002 13.4934C29.8382 13.4934 13.4936 29.838 13.4936 50C13.4936 70.162 29.8382 86.5066 50.0002 86.5066C70.1623 86.5066 86.5068 70.162 86.5068 50C86.5068 29.838 70.1623 13.4934 50.0002 13.4934Z" fill="#D68362" fill-opacity="0.17"/>
</symbol>
<symbol id="header-burger-two">
<path d="M100 50C100 77.6142 77.6142 100 50 100C22.3858 100 0 77.6142 0 50C0 22.3858 22.3858 0 50 0C77.6142 0 100 22.3858 100 50ZM13.0303 50C13.0303 70.4178 29.5822 86.9697 50 86.9697C70.4178 86.9697 86.9697 70.4178 86.9697 50C86.9697 29.5822 70.4178 13.0303 50 13.0303C29.5822 13.0303 13.0303 29.5822 13.0303 50Z" fill="#3C322D" fill-opacity="0.12"/>
</symbol>
<symbol id="header-burger-three">
<path d="M20 10C20 15.5228 15.5228 20 10 20C4.47715 20 0 15.5228 0 10C0 4.47715 4.47715 0 10 0C15.5228 0 20 4.47715 20 10ZM2.60605 10C2.60605 14.0836 5.91644 17.3939 10 17.3939C14.0836 17.3939 17.3939 14.0836 17.3939 10C17.3939 5.91644 14.0836 2.60605 10 2.60605C5.91644 2.60605 2.60605 5.91644 2.60605 10Z" fill="#3C322D" fill-opacity="0.12"/>
</symbol>
<symbol xmlns="http://www.w3.org/2000/svg" width="24" height="24" viewBox="0 0 24 24" fill="none" id="chef-ico">
<circle cx="12" cy="12" r="11.5" fill="white" stroke="#F3848C"/>
<g filter="url(#filter0_f_12430_121)">
<circle cx="12" cy="12" r="10" fill="white"/>
<circle cx="12" cy="12" r="9.75" stroke="#F3848C" stroke-width="0.5" stroke-linecap="round" stroke-dasharray="2 2"/>
</g>
<path d="M7 8.21452C7 9.27423 7.77363 10.1543 8.78548 10.325V13.5717C8.78548 13.6664 8.82311 13.7573 8.8901 13.8242C8.95708 13.8912 9.04793 13.9289 9.14265 13.9289H14.8577C14.9524 13.9289 15.0433 13.8912 15.1103 13.8242C15.1772 13.7573 15.2149 13.6664 15.2149 13.5717V10.325C16.2264 10.1539 17 9.27423 17 8.21452C17 7.03265 16.0389 6.0715 14.857 6.0715H14.0487C13.5962 5.42467 12.8472 5 12 5C11.1528 5 10.4035 5.42467 9.95128 6.0715H9.14265C8.57453 6.07217 8.02987 6.29817 7.62817 6.69993C7.22648 7.10169 7.00057 7.64639 7 8.21452ZM9.49982 12.8581H14.5005V13.2145H9.49982V12.8581ZM9.14301 6.78584H9.60519C9.53566 7.0176 9.50017 7.25822 9.49982 7.50018C9.49982 7.59491 9.53745 7.68575 9.60443 7.75273C9.67142 7.81972 9.76226 7.85735 9.85699 7.85735C9.95172 7.85735 10.0426 7.81972 10.1095 7.75273C10.1765 7.68575 10.2142 7.59491 10.2142 7.50018C10.2142 6.51547 11.0153 5.71434 12 5.71434C12.9847 5.71434 13.7858 6.51547 13.7858 7.50018C13.7858 7.59491 13.8235 7.68575 13.8905 7.75273C13.9574 7.81972 14.0483 7.85735 14.143 7.85735C14.2377 7.85735 14.3286 7.81972 14.3956 7.75273C14.4625 7.68575 14.5002 7.59491 14.5002 7.50018C14.5002 7.25195 14.4627 7.01264 14.3948 6.78584H14.857C15.6449 6.78584 16.2857 7.4266 16.2857 8.21452C16.2853 8.59278 16.135 8.95548 15.8678 9.22319C15.6005 9.4909 15.2381 9.64179 14.8598 9.64283L14.8577 9.64247C14.8107 9.64241 14.7642 9.65165 14.7208 9.66967C14.6774 9.6877 14.638 9.71414 14.6048 9.74748C14.5715 9.78061 14.545 9.82001 14.527 9.86341C14.509 9.90682 14.4998 9.95336 14.4998 10.0004L14.5005 10.0039V12.1437H9.49982V10.0021L9.50018 10.0004C9.50027 9.95336 9.49109 9.90681 9.47316 9.86337C9.45523 9.81993 9.42891 9.78046 9.39569 9.74721C9.36248 9.71397 9.32303 9.6876 9.27961 9.66963C9.23619 9.65166 9.18965 9.64243 9.14265 9.64247L9.14051 9.64283C8.76218 9.64189 8.39966 9.49103 8.13234 9.22331C7.86502 8.9556 7.71471 8.59284 7.71434 8.21452C7.71434 7.4266 8.3551 6.78584 9.14301 6.78584ZM15.9278 15.3579H8.07222C7.97749 15.3579 7.88665 15.3955 7.81966 15.4625C7.75268 15.5295 7.71505 15.6203 7.71505 15.7151C7.71505 15.8098 7.75268 15.9006 7.81966 15.9676C7.88665 16.0346 7.97749 16.0722 8.07222 16.0722H15.9278C16.0225 16.0722 16.1134 16.0346 16.1803 15.9676C16.2473 15.9006 16.2849 15.8098 16.2849 15.7151C16.2849 15.6203 16.2473 15.5295 16.1803 15.4625C16.1134 15.3955 16.0225 15.3579 15.9278 15.3579ZM15.9278 16.4294H8.07222C7.97749 16.4294 7.88665 16.467 7.81966 16.534C7.75268 16.601 7.71505 16.6918 7.71505 16.7866C7.71505 16.8813 7.75268 16.9721 7.81966 17.0391C7.88665 17.1061 7.97749 17.1437 8.07222 17.1437H15.9278C16.0225 17.1437 16.1134 17.1061 16.1803 17.0391C16.2473 16.9721 16.2849 16.8813 16.2849 16.7866C16.2849 16.6918 16.2473 16.601 16.1803 16.534C16.1134 16.467 16.0225 16.4294 15.9278 16.4294ZM14.1423 17.5102H9.8577C9.76298 17.5102 9.67213 17.5478 9.60515 17.6148C9.53817 17.6818 9.50054 17.7726 9.50054 17.8673C9.50054 17.9621 9.53817 18.0529 9.60515 18.1199C9.67213 18.1869 9.76298 18.2245 9.8577 18.2245H14.1423C14.237 18.2245 14.3279 18.1869 14.3949 18.1199C14.4618 18.0529 14.4995 17.9621 14.4995 17.8673C14.4995 17.7726 14.4618 17.6818 14.3949 17.6148C14.3279 17.5478 14.237 17.5102 14.1423 17.5102Z" fill="black"/>
<defs>
<filter id="filter0_f_12430_121" x="1.8" y="1.8" width="20.4" height="20.4" filterUnits="userSpaceOnUse" color-interpolation-filters="sRGB">
<feFlood flood-opacity="0" result="BackgroundImageFix"/>
<feBlend mode="normal" in="SourceGraphic" in2="BackgroundImageFix" result="shape"/>
<feGaussianBlur stdDeviation="0.1" result="effect1_foregroundBlur_12430_121"/>
</filter>
</defs>
</symbol>
<symbol id="price-circle-one">
<path d="M80 40C80 62.0914 62.0914 80 40 80C17.9086 80 0 62.0914 0 40C0 17.9086 17.9086 0 40 0C62.0914 0 80 17.9086 80 40ZM15.4643 40C15.4643 53.5507 26.4493 64.5357 40 64.5357C53.5507 64.5357 64.5357 53.5507 64.5357 40C64.5357 26.4493 53.5507 15.4643 40 15.4643C26.4493 15.4643 15.4643 26.4493 15.4643 40Z" fill="#F3848C" fill-opacity="0.12"/>
</symbol>
<symbol id="price-left-circle">
<path d="M93 50C93 77.6142 70.6142 100 43 100C15.3858 100 -7 77.6142 -7 50C-7 22.3858 15.3858 0 43 0C70.6142 0 93 22.3858 93 50ZM6.4934 50C6.4934 70.162 22.838 86.5066 43 86.5066C63.162 86.5066 79.5066 70.162 79.5066 50C79.5066 29.838 63.162 13.4934 43 13.4934C22.838 13.4934 6.4934 29.838 6.4934 50Z" fill="#D68362" fill-opacity="0.17"/>
</symbol>
<symbol id="price-bottom-circle">
<path d="M100 50C100 77.6142 77.6142 100 50 100C22.3858 100 0 77.6142 0 50C0 22.3858 22.3858 0 50 0C77.6142 0 100 22.3858 100 50ZM19.2568 50C19.2568 66.979 33.021 80.7432 50 80.7432C66.979 80.7432 80.7432 66.979 80.7432 50C80.7432 33.021 66.979 19.2568 50 19.2568C33.021 19.2568 19.2568 33.021 19.2568 50Z" fill="#D68362" fill-opacity="0.15"/>
</symbol>
<symbol id="price-right-circle">
<path d="M100 50C100 77.6142 77.6142 100 50 100C22.3858 100 0 77.6142 0 50C0 22.3858 22.3858 0 50 0C77.6142 0 100 22.3858 100 50ZM13.0303 50C13.0303 70.4178 29.5822 86.9697 50 86.9697C70.4178 86.9697 86.9697 70.4178 86.9697 50C86.9697 29.5822 70.4178 13.0303 50 13.0303C29.5822 13.0303 13.0303 29.5822 13.0303 50Z" fill="#3C322D" fill-opacity="0.12"/>
</symbol>
<symbol id="price-small-circle">
<path d="M100 50C100 77.6142 77.6142 100 50 100C22.3858 100 0 77.6142 0 50C0 22.3858 22.3858 0 50 0C77.6142 0 100 22.3858 100 50ZM13.0303 50C13.0303 70.4178 29.5822 86.9697 50 86.9697C70.4178 86.9697 86.9697 70.4178 86.9697 50C86.9697 29.5822 70.4178 13.0303 50 13.0303C29.5822 13.0303 13.0303 29.5822 13.0303 50Z" fill="#3C322D" fill-opacity="0.12"/>
</symbol>
<symbol id="price-small-left-circle">
<path d="M100 50C100 77.6142 77.6142 100 50 100C22.3858 100 0 77.6142 0 50C0 22.3858 22.3858 0 50 0C77.6142 0 100 22.3858 100 50ZM13.0303 50C13.0303 70.4178 29.5822 86.9697 50 86.9697C70.4178 86.9697 86.9697 70.4178 86.9697 50C86.9697 29.5822 70.4178 13.0303 50 13.0303C29.5822 13.0303 13.0303 29.5822 13.0303 50Z" fill="#3C322D" fill-opacity="0.12"/>
</symbol>
<symbol id="price-smallest-circle">
<path d="M100 50C100 77.6142 77.6142 100 50 100C22.3858 100 0 77.6142 0 50C0 22.3858 22.3858 0 50 0C77.6142 0 100 22.3858 100 50ZM13.0303 50C13.0303 70.4178 29.5822 86.9697 50 86.9697C70.4178 86.9697 86.9697 70.4178 86.9697 50C86.9697 29.5822 70.4178 13.0303 50 13.0303C29.5822 13.0303 13.0303 29.5822 13.0303 50Z" fill="#3C322D" fill-opacity="0.12"/>
</symbol>
</svg>